<svg xmlns="http://www.w3.org/2000/svg" width="1920" height="1080" viewBox="0 0 1920 1080" preserveAspectRatio="xMidYMid slice">
  <defs>
    <linearGradient id="g" x1="0" y1="0" x2="1" y2="1">
      <stop offset="0" stop-color="#4CAF50" stop-opacity="0.18" />
      <stop offset="0.55" stop-color="#FFFFFF" stop-opacity="0.65" />
      <stop offset="1" stop-color="#7E57C2" stop-opacity="0.16" />
    </linearGradient>
    <radialGradient id="r1" cx="22%" cy="28%" r="55%">
      <stop offset="0" stop-color="#4CAF50" stop-opacity="0.22" />
      <stop offset="1" stop-color="#4CAF50" stop-opacity="0" />
    </radialGradient>
    <radialGradient id="r2" cx="78%" cy="22%" r="62%">
      <stop offset="0" stop-color="#7E57C2" stop-opacity="0.18" />
      <stop offset="1" stop-color="#7E57C2" stop-opacity="0" />
    </radialGradient>
    <pattern id="dots" width="44" height="44" patternUnits="userSpaceOnUse">
      <circle cx="6" cy="6" r="1.6" fill="#4CAF50" fill-opacity="0.10" />
      <circle cx="26" cy="22" r="1.2" fill="#7E57C2" fill-opacity="0.08" />
    </pattern>
  </defs>
  <rect width="1920" height="1080" fill="url(#g)" />
  <rect width="1920" height="1080" fill="url(#r1)" />
  <rect width="1920" height="1080" fill="url(#r2)" />
  <rect width="1920" height="1080" fill="url(#dots)" opacity="0.9" />
  <path d="M0,760 C240,700 430,720 640,760 C860,804 1060,860 1280,840 C1500,820 1680,740 1920,760 L1920,1080 L0,1080 Z" fill="#4CAF50" fill-opacity="0.07" />
  <path d="M0,820 C240,780 420,780 640,826 C860,874 1060,940 1280,924 C1500,908 1690,828 1920,850 L1920,1080 L0,1080 Z" fill="#7E57C2" fill-opacity="0.06" />
</svg>
